<svg xmlns="http://www.w3.org/2000/svg" xmlns:xlink="http://www.w3.org/1999/xlink" preserveAspectRatio="xMidYMid" width="57" height="114" viewBox="0 0 57 114">
  <defs>
    <style>

      .cls-3 {
        fill: #000000;
        filter: url(#color-overlay-1);
      }

      .cls-4 {
        fill: #000000;
        filter: url(#color-overlay-2);
      }
    </style>

    <filter id="color-overlay-1" filterUnits="userSpaceOnUse">
      <feFlood flood-color="#ff0e69" flood-opacity="1"/>
      <feComposite operator="in" in2="SourceGraphic"/>
      <feBlend mode="normal" in2="SourceGraphic" result="colorOverlay"/>
    </filter>
    <filter id="color-overlay-2" filterUnits="userSpaceOnUse">
      <feFlood flood-color="#538cf3" flood-opacity="1"/>
      <feComposite operator="in" in2="SourceGraphic"/>
      <feBlend mode="normal" in2="SourceGraphic" result="colorOverlay"/>
    </filter>
  </defs>
  <g id="группа-1svg">
    <path d="M49.224,98.451 C49.224,98.451 46.632,98.451 46.632,98.451 C46.632,98.451 53.756,86.794 53.756,86.794 C53.756,86.794 20.728,86.794 20.728,86.794 C20.728,86.794 20.728,84.209 20.728,84.209 C20.728,84.209 53.756,84.209 53.756,84.209 C53.756,84.209 46.632,72.547 46.632,72.547 C46.632,72.547 49.224,72.547 49.224,72.547 C49.224,72.547 56.994,85.499 56.994,85.499 C56.994,85.499 49.224,98.451 49.224,98.451 ZM36.271,59.594 C36.271,59.594 2.595,59.594 2.595,59.594 C2.595,59.594 2.595,111.404 2.595,111.404 C2.595,111.404 36.271,111.404 36.271,111.404 C36.271,111.404 36.271,97.156 36.271,97.156 C36.271,97.156 38.860,97.156 38.860,97.156 C38.860,97.156 38.860,113.994 38.860,113.994 C38.860,113.994 0.004,113.994 0.004,113.994 C0.004,113.994 0.004,57.004 0.004,57.004 C0.004,57.004 38.860,57.004 38.860,57.004 C38.860,57.004 38.860,73.842 38.860,73.842 C38.860,73.842 36.271,73.842 36.271,73.842 C36.271,73.842 36.271,59.594 36.271,59.594 Z" id="path-1" class="cls-3" fill-rule="evenodd"/>
    <path d="M49.224,41.451 C49.224,41.451 46.632,41.451 46.632,41.451 C46.632,41.451 53.756,29.794 53.756,29.794 C53.756,29.794 20.728,29.794 20.728,29.794 C20.728,29.794 20.728,27.209 20.728,27.209 C20.728,27.209 53.756,27.209 53.756,27.209 C53.756,27.209 46.632,15.547 46.632,15.547 C46.632,15.547 49.224,15.547 49.224,15.547 C49.224,15.547 56.994,28.499 56.994,28.499 C56.994,28.499 49.224,41.451 49.224,41.451 ZM36.271,2.594 C36.271,2.594 2.595,2.594 2.595,2.594 C2.595,2.594 2.595,54.404 2.595,54.404 C2.595,54.404 36.271,54.404 36.271,54.404 C36.271,54.404 36.271,40.156 36.271,40.156 C36.271,40.156 38.860,40.156 38.860,40.156 C38.860,40.156 38.860,56.994 38.860,56.994 C38.860,56.994 0.004,56.994 0.004,56.994 C0.004,56.994 0.004,0.004 0.004,0.004 C0.004,0.004 38.860,0.004 38.860,0.004 C38.860,0.004 38.860,16.842 38.860,16.842 C38.860,16.842 36.271,16.842 36.271,16.842 C36.271,16.842 36.271,2.594 36.271,2.594 Z" id="path-2" class="cls-4" fill-rule="evenodd"/>
  </g>
</svg>
