<?xml version="1.0" encoding="UTF-8" standalone="no"?>
<svg width="103px" height="192px" viewBox="0 0 103 192" version="1.1" xmlns="http://www.w3.org/2000/svg" xmlns:xlink="http://www.w3.org/1999/xlink" xmlns:sketch="http://www.bohemiancoding.com/sketch/ns">
    <!-- Generator: Sketch 3.2.2 (9983) - http://www.bohemiancoding.com/sketch -->
    <title>Untitled</title>
    <desc>Created with Sketch.</desc>
    <defs></defs>
    <g id="Page-1" stroke="none" stroke-width="1" fill="none" fill-rule="evenodd" sketch:type="MSPage">
        <g id="группа-1" sketch:type="MSLayerGroup">
            <path d="M100.528745,66.1335068 C95.5858223,74.7393009 86.7563831,88.1884678 86.7563831,88.1884678 L66.0796583,88.200741 L65.7491907,96.4128831 L54.5210205,77.4625901 L67.1419729,60.5364678 L66.8783262,68.3454123 L84.4990213,68.5086005 L69.6638906,41.6448135 L87.8855185,31.9971602 L101.553785,56.7304086 C102.896565,59.1614136 102.557006,62.613368 100.528745,66.1335068 L100.528745,66.1335068 Z M54.7410292,32.0003421 L62.0608634,27.8788159 L52.8400451,13.1809634 L37.456711,39.7538298 L19.4287271,29.7666176 L33.5829218,5.29792511 C34.9707038,2.89646674 38.1453745,1.34686016 42.2673553,1.15185246 C52.3418436,0.679561105 68.6765789,0.860931896 68.6765789,0.860931896 L79.6692853,17.9943351 L86.9577547,13.9082648 L76.5155245,33.2790289 L54.7410292,32.0003421 L54.7410292,32.0003421 Z M25.9748944,39.9402008 L35.9693796,59.3459663 L28.2890766,54.9121551 L19.7601038,70.0041141 L50.9695168,70.0132053 L50.9695168,90.280823 L22.2365651,90.280823 C19.4128174,90.280823 16.4695194,88.3484741 14.2703418,84.9333394 C8.89012952,76.5793734 0.998,62.5824576 0.998,62.5824576 L10.8256604,44.7863011 L3.59992082,40.5924993 L25.9748944,39.9402008 L25.9748944,39.9402008 Z" id="path-1" fill="#9CA3AE" sketch:type="MSShapeGroup"></path>
            <path d="M100.528745,161.591818 C95.5858223,170.197612 86.7563831,183.646779 86.7563831,183.646779 L66.0796583,183.659052 L65.7491907,191.871194 L54.5210205,172.920901 L67.1419729,155.994779 L66.8783262,163.803723 L84.4990213,163.966912 L69.6638906,137.103125 L87.8855185,127.455471 L101.553785,152.18872 C102.896565,154.619725 102.557006,158.071679 100.528745,161.591818 L100.528745,161.591818 Z M54.7410292,127.458653 L62.0608634,123.337127 L52.8400451,108.639275 L37.456711,135.212141 L19.4287271,125.224929 L33.5829218,100.756236 C34.9707038,98.3547779 38.1453745,96.8051713 42.2673553,96.6101636 C52.3418436,96.1378723 68.6765789,96.3192431 68.6765789,96.3192431 L79.6692853,113.452646 L86.9577547,109.366576 L76.5155245,128.73734 L54.7410292,127.458653 L54.7410292,127.458653 Z M25.9748944,135.398512 L35.9693796,154.804278 L28.2890766,150.370466 L19.7601038,165.462425 L50.9695168,165.471517 L50.9695168,185.739134 L22.2365651,185.739134 C19.4128174,185.739134 16.4695194,183.806785 14.2703418,180.391651 C8.89012952,172.037685 0.998,158.040769 0.998,158.040769 L10.8256604,140.244612 L3.59992082,136.05081 L25.9748944,135.398512 L25.9748944,135.398512 Z" id="path-2" fill="#2DCC72" sketch:type="MSShapeGroup"></path>
        </g>
    </g>
</svg>