<svg xmlns="http://www.w3.org/2000/svg" width="504" height="304" viewBox="0 0 504 304">
  <g fill="none">
    <path fill="#07A9E2" d="M252,264 C282.4,236.8 301.6,196.8 301.6,152 C301.6,107.2 282.4,68 252,40 C225.6,16 189.6,0.8 151.2,0.8 C68,0.8 0,68.8 0,152 C0,235.2 68,302.4 151.2,302.4 C189.6,303.2 225.6,288 252,264 L252,264 Z"/>
    <path fill="#009DDD" d="M0,152 C0,235.2 68,302.4 151.2,302.4 C190.4,302.4 225.6,288 252,263.2 L252,263.2 C282.4,236 301.6,196 301.6,151.2 C301.6,106.4 282.4,68 252,40 C225.6,16 189.6,0.8 151.2,0.8"/>
    <path fill="#0284CC" d="M252,40 C225.6,16 189.6,0.8 151.2,0.8 L144,0.8 C96.8,35.2 66.4,90.4 66.4,152 C66.4,213.6 96.8,268.8 143.2,302.4 L150.4,302.4 C189.6,302.4 224.8,288 251.2,263.2 C281.6,236 300.8,196 300.8,151.2 C300.8,106.4 282.4,68 252,40 Z"/>
    <path fill="#FF2957" d="M353.6,0.8 C314.4,0.8 279.2,15.2 252,40 C246.4,44.8 241.6,50.4 236.8,56 L267.2,56 C271.2,60.8 275.2,66.4 278.4,72 L224.8,72 C221.6,77.6 218.4,82.4 216,88 L287.2,88 C289.6,93.6 292,98.4 293.6,104 L210.4,104 C208.8,109.6 207.2,114.4 205.6,120 L298.4,120 C300.8,130.4 301.6,140.8 301.6,152 C301.6,168.8 299.2,184.8 293.6,200 L210.4,200 C212,205.6 214.4,210.4 216.8,216 L288,216 C285.6,221.6 282.4,227.2 279.2,232 L225.6,232 C228.8,237.6 232.8,243.2 236.8,248 L267.2,248 C262.4,253.6 257.6,259.2 252,264 C279.2,288 314.4,303.2 353.6,303.2 C436.8,303.2 504,236 504,152.8 C504,68.8 436.8,0.8 353.6,0.8 L353.6,0.8 Z"/>
    <path fill="#ED1C2E" d="M353.6,0.8 L353.6,0.8 C314.4,0.8 279.2,15.2 252,40 C246.4,44.8 241.6,50.4 236.8,56 L267.2,56 C271.2,60.8 275.2,66.4 278.4,72 L224.8,72 C221.6,77.6 218.4,82.4 216,88 L287.2,88 C289.6,93.6 292,98.4 293.6,104 L210.4,104 C208.8,109.6 207.2,114.4 205.6,120 L298.4,120 C300.8,130.4 301.6,140.8 301.6,152 C301.6,168.8 299.2,184.8 293.6,200 L210.4,200 C212,205.6 214.4,210.4 216.8,216 L288,216 C285.6,221.6 282.4,227.2 279.2,232 L225.6,232 C228.8,237.6 232.8,243.2 236.8,248 L267.2,248 C262.4,253.6 257.6,259.2 252,264 C279.2,288 314.4,303.2 353.6,303.2 C436.8,303.2 504,236 504,152.8"/>
    <path fill="#0466B5" d="M252,264 C282.4,236.8 301.6,196.8 301.6,152 C301.6,107.2 282.4,68 252,40 L252,264 L252,264 Z"/>
    <path fill="#FFFFFF" d="M452,184.8 C452,182.4 454.4,180 456.8,180 C459.2,180 461.6,182.4 461.6,184.8 C461.6,187.2 459.2,189.6 456.8,189.6 C454.4,189.6 452,187.2 452,184.8 L452,184.8 Z M456.8,188.8 C459.2,188.8 460,187.2 460,184.8 C460,182.4 458.4,181.6 456.8,181.6 C454.4,181.6 452.8,183.2 452.8,184.8 C452.8,186.4 455.2,188.8 456.8,188.8 L456.8,188.8 Z M456.8,186.4 L456,186.4 L456,182.4 L457.6,182.4 L458.4,182.4 L459.2,183.2 C459.2,184 459.2,184 458.4,184 L459.2,185.6 L458.4,185.6 L457.6,184 L456.8,184 L456.8,186.4 L456.8,186.4 Z M456.8,184 L456.8,184 L457.6,184 C457.6,184 457.6,184 457.6,183.2 L457.6,183.2 L456.8,183.2 L456.8,183.2 L456.8,184 L456.8,184 Z"/>
    <path fill="#D1094B" d="M252,40 C246.4,44.8 241.6,50.4 236.8,56 L267.2,56 C271.2,60.8 275.2,66.4 278.4,72 L224.8,72 C221.6,77.6 218.4,82.4 216,88 L287.2,88 C289.6,93.6 292,98.4 293.6,104 L210.4,104 C208.8,109.6 207.2,114.4 205.6,120 L298.4,120 C300.8,130.4 301.6,140.8 301.6,152 C301.6,168.8 299.2,184.8 293.6,200 L210.4,200 C212,205.6 214.4,210.4 216.8,216 L288,216 C285.6,221.6 282.4,227.2 279.2,232 L225.6,232 C228.8,237.6 232.8,243.2 236.8,248 L267.2,248 C262.4,253.6 257.6,259.2 252,264 C279.2,288 314.4,303.2 353.6,303.2 L360.8,303.2 C407.2,269.6 437.6,214.4 437.6,152.8 C437.6,91.2 407.2,36 360.8,2.4 L353.6,2.4 C314.4,0.8 279.2,16 252,40 Z"/>
    <polygon fill="#FFFFFF" points="132 189.6 112.8 189.6 124 131.2 98.4 189.6 81.6 189.6 78.4 131.2 67.2 189.6 50.4 189.6 64.8 112.8 94.4 112.8 96 160.8 116.8 112.8 147.2 112.8"/>
    <g fill="#DCE5E5" transform="translate(112 113)">
      <path d="M1.6 43L12.8 18.2 4 64.6C4.8 68.6 5.6 73.4 7.2 77.4L20 77.4 34.4.6 6.4.6C3.2 12.6.8 26.2.8 39.8 1.6 40.6 1.6 41.4 1.6 43zM229.6 75.8C224 77.4 220.8 78.2 216 78.2 206.4 78.2 201.6 73.4 201.6 64.6 201.6 63 201.6 61.4 202.4 59L203.2 52.6 204 47.8 212.8.6 231.2.6 228.8 15 238.4 15 236 29.4 226.4 29.4 221.6 55C221.6 55.8 220.8 57.4 220.8 57.4 220.8 60.6 223.2 62.2 227.2 62.2 229.6 62.2 231.2 62.2 232 61.4L229.6 75.8 229.6 75.8zM284.8 15C283.2 14.2 283.2 14.2 282.4 14.2 281.6 14.2 280.8 14.2 280.8 13.4L278.4 13.4C272 13.4 268 15.8 262.4 23.8L264 14.2 247.2 14.2 236 76.6 255.2 76.6C261.6 38.2 264.8 31.8 273.6 31.8L276 31.8 278.4 32.6 284.8 15 284.8 15zM155.2 34.2C155.2 42.2 160 47.8 169.6 51 177.6 54.2 178.4 55 178.4 58.2 178.4 62.2 175.2 63.8 167.2 63.8 161.6 63.8 156 63 150.4 61.4L148 75.8 148.8 75.8 152 76.6 156.8 76.6C161.6 77.4 164.8 77.4 167.2 77.4 187.2 77.4 196.8 71 196.8 56.6 196.8 47.8 192.8 43 183.2 39 175.2 35.8 174.4 35 174.4 32.6 174.4 29.4 177.6 27.8 184 27.8 187.2 27.8 192.8 27.8 197.6 28.6L200 14.2C195.2 13.4 188 13.4 183.2 13.4 162.4 13.4 155.2 23 155.2 34.2L155.2 34.2zM80.8 76.6L65.6 76.6 65.6 70.2C60.8 75 54.4 77.4 45.6 77.4 35.2 77.4 28.8 70.2 28.8 60.6 28.8 45.4 40.8 36.6 61.6 36.6L69.6 36.6C70.4 34.2 70.4 33.4 70.4 32.6 70.4 28.6 67.2 27 58.4 27 52.8 27 47.2 27.8 43.2 28.6L40.8 29.4 39.2 29.4 41.6 15.8C51.2 13.4 56.8 12.6 64 12.6 80 12.6 88.8 19 88.8 31 88.8 34.2 88.8 36.6 87.2 43.8L83.2 66.2 82.4 70.2 81.6 73.4 81.6 75.8 80.8 76.6 80.8 76.6zM67.2 48.6L63.2 48.6C52.8 48.6 47.2 51.8 47.2 58.2 47.2 62.2 49.6 64.6 53.6 64.6 61.6 64.6 67.2 58.2 67.2 48.6L67.2 48.6zM142.4 75C136 76.6 129.6 77.4 123.2 77.4 102.4 77.4 91.2 67.8 91.2 49.4 91.2 27.8 104.8 12.6 124 12.6 139.2 12.6 148.8 21.4 148.8 35 148.8 39.8 148 43.8 146.4 50.2L108.8 50.2 108.8 52.6C108.8 59.8 114.4 63.8 124.8 63.8 132 63.8 137.6 63 144 59.8L142.4 75 142.4 75zM132.8 38.2L132.8 35C132.8 30.2 129.6 27 124 27 118.4 27 113.6 31 112 38.2L132.8 38.2 132.8 38.2z"/>
    </g>
    <g fill="#FFFFFF" transform="translate(388 125)">
      <path d="M67.2,36.6 C64,57.4 49.6,66.2 30.4,66.2 C9.6,66.2 0.8,53.4 0.8,37.4 C0.8,15.8 15.2,0.6 37.6,0.6 C56.8,0.6 67.2,13.4 67.2,28.6 L67.2,36.6 L67.2,36.6 Z M47.2,28.6 C47.2,22.2 44.8,16.6 36.8,16.6 C27.2,16.6 21.6,27.8 21.6,38.2 C21.6,46.2 25.6,51.8 32,51.8 C36,51.8 44.8,46.2 46.4,36.6 C47.2,33.4 47.2,31 47.2,28.6 L47.2,28.6 Z"/>
      <path d="M1.6,44.6 C2.4,39 3.2,32.6 3.2,27 L3.2,25.4 C2.4,29.4 1.6,33.4 1.6,38.2 C0.8,39.8 0.8,42.2 1.6,44.6 Z"/>
    </g>
  </g>
</svg>
