<svg xmlns="http://www.w3.org/2000/svg" width="504" height="304" viewBox="0 0 504 304">
  <g fill="none">
    <path fill="#FFB600" d="M504,152 C504,235.2 436.8,303.2 352.8,303.2 C269.6,303.2 201.6,235.2 201.6,152 L201.6,152 C201.6,68.8 268.8,0.8 352,0.8 C436.8,0.8 504,68.8 504,152 L504,152 Z"/>
    <path fill="#F7981D" d="M352.8,0.8 C436,0.8 504,68.8 504,152 L504,152 C504,235.2 436.8,303.2 352.8,303.2 C269.6,303.2 201.6,235.2 201.6,152"/>
    <path fill="#FF8500" d="M352.8,0.8 C436,0.8 504,68.8 504,152 L504,152 C504,235.2 436.8,303.2 352.8,303.2"/>
    <path fill="#FF5050" d="M149.6,0.8 C67.2,1.6 0,68.8 0,152 C0,235.2 67.2,303.2 151.2,303.2 C190.4,303.2 225.6,288 252.8,264 L252.8,264 L252.8,264 C258.4,259.2 263.2,253.6 268,248 L236.8,248 C232.8,243.2 228.8,237.6 225.6,232.8 L279.2,232.8 C282.4,228 285.6,222.4 288,216.8 L216.8,216.8 C214.4,212 212,206.4 210.4,200.8 L293.6,200.8 C298.4,185.6 301.6,169.6 301.6,152.8 C301.6,141.6 300,131.2 298.4,120.8 L205.6,120.8 C206.4,115.2 208,110.4 209.6,104.8 L292.8,104.8 C291.2,99.2 288.8,93.6 286.4,88.8 L216,88.8 C218.4,83.2 221.6,78.4 224.8,72.8 L278.4,72.8 C275.2,67.2 271.2,61.6 266.4,56.8 L236.8,56.8 C241.6,51.2 246.4,46.4 252,41.6 C225.6,16.8 189.6,2.4 150.4,2.4 C150.4,0.8 150.4,0.8 149.6,0.8 Z"/>
    <path fill="#E52836" d="M0,152 C0,235.2 67.2,303.2 151.2,303.2 C190.4,303.2 225.6,288 252.8,264 L252.8,264 L252.8,264 C258.4,259.2 263.2,253.6 268,248 L236.8,248 C232.8,243.2 228.8,237.6 225.6,232.8 L279.2,232.8 C282.4,228 285.6,222.4 288,216.8 L216.8,216.8 C214.4,212 212,206.4 210.4,200.8 L293.6,200.8 C298.4,185.6 301.6,169.6 301.6,152.8 C301.6,141.6 300,131.2 298.4,120.8 L205.6,120.8 C206.4,115.2 208,110.4 209.6,104.8 L292.8,104.8 C291.2,99.2 288.8,93.6 286.4,88.8 L216,88.8 C218.4,83.2 221.6,78.4 224.8,72.8 L278.4,72.8 C275.2,67.2 271.2,61.6 266.4,56.8 L236.8,56.8 C241.6,51.2 246.4,46.4 252,41.6 C225.6,16.8 189.6,2.4 150.4,2.4 L149.6,2.4"/>
    <path fill="#CB2026" d="M151.2,303.2 C190.4,303.2 225.6,288 252.8,264 L252.8,264 L252.8,264 C258.4,259.2 263.2,253.6 268,248 L236.8,248 C232.8,243.2 228.8,237.6 225.6,232.8 L279.2,232.8 C282.4,228 285.6,222.4 288,216.8 L216.8,216.8 C214.4,212 212,206.4 210.4,200.8 L293.6,200.8 C298.4,185.6 301.6,169.6 301.6,152.8 C301.6,141.6 300,131.2 298.4,120.8 L205.6,120.8 C206.4,115.2 208,110.4 209.6,104.8 L292.8,104.8 C291.2,99.2 288.8,93.6 286.4,88.8 L216,88.8 C218.4,83.2 221.6,78.4 224.8,72.8 L278.4,72.8 C275.2,67.2 271.2,61.6 266.4,56.8 L236.8,56.8 C241.6,51.2 246.4,46.4 252,41.6 C225.6,16.8 189.6,2.4 150.4,2.4 L149.6,2.4"/>
    <g fill="#FFFFFF" transform="translate(14 112)">
      <path d="M190.8 78.4L193.2 64.8C192.4 64.8 190.8 65.6 189.2 65.6 183.6 65.6 182.8 62.4 183.6 60.8L188.4 32.8 197.2 32.8 199.6 17.6 191.6 17.6 193.2 8 177.2 8C177.2 8 167.6 60.8 167.6 67.2 167.6 76.8 173.2 80.8 180.4 80.8 185.2 80.8 189.2 79.2 190.8 78.4zM196.4 52.8C196.4 75.2 211.6 80.8 224.4 80.8 236.4 80.8 241.2 78.4 241.2 78.4L244.4 63.2C244.4 63.2 235.6 67.2 227.6 67.2 210 67.2 213.2 54.4 213.2 54.4L246 54.4C246 54.4 248.4 44 248.4 40 248.4 29.6 242.8 16.8 225.2 16.8 208.4 15.2 196.4 32.8 196.4 52.8zM224.4 29.6C233.2 29.6 231.6 40 231.6 40.8L214 40.8C214 40 215.6 29.6 224.4 29.6zM326 78.4L329.2 60.8C329.2 60.8 321.2 64.8 315.6 64.8 304.4 64.8 299.6 56 299.6 46.4 299.6 27.2 309.2 16.8 320.4 16.8 328.4 16.8 334.8 21.6 334.8 21.6L337.2 4.8C337.2 4.8 327.6.8 318.8.8 300.4.8 282 16.8 282 47.2 282 67.2 291.6 80.8 310.8 80.8 317.2 80.8 326 78.4 326 78.4zM102.8 15.2C91.6 15.2 83.6 18.4 83.6 18.4L81.2 32C81.2 32 88.4 28.8 98.8 28.8 104.4 28.8 109.2 29.6 109.2 34.4 109.2 37.6 108.4 38.4 108.4 38.4L101.2 38.4C87.6 38.4 72.4 44 72.4 62.4 72.4 76.8 82 80 87.6 80 98.8 80 103.6 72.8 104.4 72.8L103.6 79.2 118 79.2 124.4 35.2C124.4 16 108.4 15.2 102.8 15.2zM106 51.2C106 53.6 104.4 66.4 94.8 66.4 90 66.4 88.4 62.4 88.4 60 88.4 56 90.8 50.4 102.8 50.4 105.2 51.2 106 51.2 106 51.2zM139.6 80C143.6 80 163.6 80.8 163.6 59.2 163.6 39.2 144.4 43.2 144.4 35.2 144.4 31.2 147.6 29.6 153.2 29.6 155.6 29.6 164.4 30.4 164.4 30.4L166.8 16C166.8 16 161.2 14.4 151.6 14.4 139.6 14.4 127.6 19.2 127.6 35.2 127.6 53.6 147.6 52 147.6 59.2 147.6 64 142 64.8 138 64.8 130.8 64.8 123.6 62.4 123.6 62.4L121.2 76.8C122 78.4 126 80 139.6 80zM458.8 2.4L455.6 24C455.6 24 449.2 16 440.4 16 426 16 413.2 33.6 413.2 54.4 413.2 67.2 419.6 80.8 433.2 80.8 442.8 80.8 448.4 74.4 448.4 74.4L447.6 80 463.6 80 475.6 3.2 458.8 2.4zM451.6 44.8C451.6 53.6 447.6 64.8 438.8 64.8 433.2 64.8 430 60 430 52 430 39.2 435.6 31.2 442.8 31.2 448.4 31.2 451.6 35.2 451.6 44.8z"/>
      <polygon points="15.6 79.2 25.2 21.6 26.8 79.2 38 79.2 58.8 21.6 50 79.2 66.8 79.2 79.6 2.4 53.2 2.4 37.2 49.6 36.4 2.4 13.2 2.4 .4 79.2"/>
      <path d="M263.6 79.2C268.4 52.8 269.2 31.2 280.4 35.2 282 24.8 284.4 20.8 286 16.8L282.8 16.8C275.6 16.8 270 26.4 270 26.4L271.6 17.6 256.4 17.6 246 80 263.6 80 263.6 79.2zM362.8 15.2C351.6 15.2 343.6 18.4 343.6 18.4L341.2 32C341.2 32 348.4 28.8 358.8 28.8 364.4 28.8 369.2 29.6 369.2 34.4 369.2 37.6 368.4 38.4 368.4 38.4L361.2 38.4C347.6 38.4 332.4 44 332.4 62.4 332.4 76.8 342 80 347.6 80 358.8 80 363.6 72.8 364.4 72.8L363.6 79.2 378 79.2 384.4 35.2C385.2 16 368.4 15.2 362.8 15.2zM366.8 51.2C366.8 53.6 365.2 66.4 355.6 66.4 350.8 66.4 349.2 62.4 349.2 60 349.2 56 351.6 50.4 363.6 50.4 366 51.2 366 51.2 366.8 51.2zM398 79.2C402.8 52.8 403.6 31.2 414.8 35.2 416.4 24.8 418.8 20.8 420.4 16.8L417.2 16.8C410 16.8 404.4 26.4 404.4 26.4L406 17.6 390.8 17.6 380.4 80 398 80 398 79.2z"/>
    </g>
    <g fill="#DCE5E5" transform="translate(14 112)">
      <path d="M166 67.2C166 76.8 171.6 80.8 178.8 80.8 184.4 80.8 189.2 79.2 190.8 78.4L193.2 64.8C192.4 64.8 190.8 65.6 189.2 65.6 183.6 65.6 182.8 62.4 183.6 60.8L188.4 32.8 197.2 32.8 199.6 17.6 191.6 17.6 193.2 8M204.4 52.8C204.4 75.2 211.6 80.8 224.4 80.8 236.4 80.8 241.2 78.4 241.2 78.4L244.4 63.2C244.4 63.2 235.6 67.2 227.6 67.2 210 67.2 213.2 54.4 213.2 54.4L246 54.4C246 54.4 248.4 44 248.4 40 248.4 29.6 242.8 16.8 225.2 16.8 208.4 15.2 204.4 32.8 204.4 52.8zM224.4 29.6C233.2 29.6 234.8 40 234.8 40.8L214 40.8C214 40 215.6 29.6 224.4 29.6zM326 78.4L329.2 60.8C329.2 60.8 321.2 64.8 315.6 64.8 304.4 64.8 299.6 56 299.6 46.4 299.6 27.2 309.2 16.8 320.4 16.8 328.4 16.8 334.8 21.6 334.8 21.6L337.2 4.8C337.2 4.8 327.6.8 318.8.8 300.4.8 290 16.8 290 47.2 290 67.2 291.6 80.8 310.8 80.8 317.2 80.8 326 78.4 326 78.4zM81.2 32.8C81.2 32.8 88.4 29.6 98.8 29.6 104.4 29.6 109.2 30.4 109.2 35.2 109.2 38.4 108.4 39.2 108.4 39.2L101.2 39.2C87.6 39.2 72.4 44.8 72.4 63.2 72.4 77.6 82 80.8 87.6 80.8 98.8 80.8 103.6 73.6 104.4 73.6L103.6 80 118 80 124.4 36C124.4 17.6 108.4 16.8 102 16.8L81.2 32.8zM114 51.2C114 53.6 104.4 66.4 94.8 66.4 90 66.4 88.4 62.4 88.4 60 88.4 56 90.8 50.4 102.8 50.4 105.2 51.2 114 51.2 114 51.2zM122 78.4C122 78.4 126.8 80 140.4 80 144.4 80 164.4 80.8 164.4 59.2 164.4 39.2 145.2 43.2 145.2 35.2 145.2 31.2 148.4 29.6 154 29.6 156.4 29.6 165.2 30.4 165.2 30.4L167.6 16C167.6 16 162 14.4 152.4 14.4 140.4 14.4 136.4 19.2 136.4 35.2 136.4 53.6 148.4 52 148.4 59.2 148.4 64 142.8 64.8 138.8 64.8M455.6 24C455.6 24 449.2 16 440.4 16 426 16 421.2 33.6 421.2 54.4 421.2 67.2 419.6 80.8 433.2 80.8 442.8 80.8 448.4 74.4 448.4 74.4L447.6 80 463.6 80 475.6 3.2 455.6 24zM454.8 44.8C454.8 53.6 447.6 64.8 438.8 64.8 433.2 64.8 430 60 430 52 430 39.2 435.6 31.2 442.8 31.2 448.4 31.2 454.8 35.2 454.8 44.8z"/>
      <polygon points="15.6 79.2 25.2 21.6 26.8 79.2 38 79.2 58.8 21.6 50 79.2 66.8 79.2 79.6 2.4 59.6 2.4 37.2 49.6 36.4 2.4 27.6 2.4 .4 79.2"/>
      <path d="M246.8 79.2L263.6 79.2C268.4 52.8 269.2 31.2 280.4 35.2 282 24.8 284.4 20.8 286 16.8L282.8 16.8C275.6 16.8 270 26.4 270 26.4L271.6 17.6M341.2 32.8C341.2 32.8 348.4 29.6 358.8 29.6 364.4 29.6 369.2 30.4 369.2 35.2 369.2 38.4 368.4 39.2 368.4 39.2L361.2 39.2C347.6 39.2 332.4 44.8 332.4 63.2 332.4 77.6 342 80.8 347.6 80.8 358.8 80.8 363.6 73.6 364.4 73.6L363.6 80 378 80 384.4 36C384.4 17.6 368.4 16.8 362 16.8L341.2 32.8zM374 51.2C374 53.6 364.4 66.4 354.8 66.4 350 66.4 348.4 62.4 348.4 60 348.4 56 350.8 50.4 362.8 50.4 366 51.2 374 51.2 374 51.2zM381.2 79.2L398 79.2C402.8 52.8 403.6 31.2 414.8 35.2 416.4 24.8 418.8 20.8 420.4 16.8L417.2 16.8C410 16.8 404.4 26.4 404.4 26.4L406 17.6"/>
    </g>
  </g>
</svg>
