<svg xmlns="http://www.w3.org/2000/svg" width="772" height="441" viewBox="0 0 772 441">
  <g fill="none">
    <polyline fill="#135191" points="1.815 304.169 93.52 304.169 93.52 331.727 36.442 331.727 36.061 357.351 92.758 357.351 92.758 383.701 35.681 383.701 35.681 409.326 92.377 409.326 92.377 436.884 .674 436.884 1.816 304.169"/>
    <polyline fill="#135191" points="117.444 293.048 150.929 293.048 150.168 436.884 116.683 436.884 117.444 293.048"/>
    <path fill="#135191" d="M240.10056 376.44882C240.10056 366.53742 235.53451 357.59302 224.49962 357.59302 213.84528 357.59302 205.8544 367.02092 203.57127 376.44882L240.10056 376.44882zM264.8341 426.00532C253.41861 435.67502 236.29563 440.50982 220.69445 440.50982 185.68718 440.50982 169.70544 415.36892 169.70544 390.71132 169.70544 361.46092 191.77547 336.80332 221.83592 336.80332 258.74581 336.80332 270.16127 362.91132 270.16127 396.02962L203.19071 396.02962C203.19071 403.52362 208.13753 416.33582 226.40218 416.33582 238.19822 416.33582 244.66684 412.70982 253.79916 406.66622L264.8341 426.00532 264.8341 426.00532zM371.49682 430.35692C361.98394 436.15852 347.14388 440.50982 335.72841 440.50982 305.2872 440.50982 283.21739 422.62092 283.21739 390.95332 283.21739 358.31812 304.90686 336.80332 338.01156 336.80332 349.42701 336.80332 363.50594 340.42952 370.7357 345.26432L360.08135 367.02092C355.13454 365.08692 349.80736 363.39472 344.48019 363.39472 327.73755 363.39472 316.70266 373.30622 316.70266 389.26112 316.70266 403.04022 327.357 413.91852 341.43615 413.91852 347.90478 413.91852 353.99306 411.01762 359.32022 408.35832L371.49682 430.35692M383.38827 340.18782L397.84775 340.18782 398.6093 307.55282 430.57255 307.55282 429.81104 340.18782 457.20823 340.18782 456.82733 364.36182 429.43036 364.36182C429.43036 377.89922 428.28809 392.16182 428.28809 400.38092 428.28809 408.84182 430.57122 412.70982 438.18152 412.70982 442.74778 412.70982 446.55273 410.53402 450.35787 408.11662L457.58784 430.84002C447.69441 436.64202 435.89839 440.50982 424.48293 440.50982 397.46647 440.50982 396.32501 423.34632 396.32501 401.10622 396.32501 389.26112 397.08656 377.17402 397.08656 364.36182L382.62702 364.36182 383.38857 340.18782M474.32395 340.18782L507.8092 340.18782 507.8092 353.96702 508.19012 353.96702C513.13673 345.74782 519.60535 337.52862 532.54306 337.52862 536.34799 337.52862 540.15315 338.01152 543.57795 338.73692L539.01169 371.61372C535.96766 370.64572 532.1625 369.92242 527.21567 369.92242 516.18076 369.92242 507.429 379.10832 507.429 381.04212L507.04811 436.88422 473.56284 436.88422 474.32434 340.18822M603.26785 415.12722C619.24958 415.12722 624.19621 401.34802 624.19621 388.53572 624.19621 375.96532 619.24958 362.18602 603.26785 362.18602 587.28634 362.18602 582.72007 375.96532 582.72007 388.53572 582.72007 401.34802 587.28634 415.12722 603.26785 415.12722zM603.26785 336.80332C639.03625 336.80332 657.30094 359.52702 657.30094 388.53572 657.30094 417.78622 639.03625 440.50982 603.26785 440.50982 567.49946 440.50982 549.23482 417.78622 549.23482 388.53572 549.23482 359.52702 567.49946 336.80332 603.26785 336.80332L603.26785 336.80332zM675.70642 340.18782L709.19168 340.18782 709.19168 350.82432C716.802 343.33052 728.21722 336.80332 740.39382 336.80332 760.94158 336.80332 771.97648 348.16532 771.97648 374.51482 771.97648 394.33752 771.59558 415.61052 771.59558 436.88382L738.11033 436.88382C738.49123 418.26982 738.49123 399.65582 738.49123 379.59142 738.49123 371.61412 736.58947 365.57032 726.31466 365.57032 720.98749 365.57032 713.37719 370.16352 709.19168 374.27322L708.43019 436.88382 674.94488 436.88382 675.70642 340.18782"/>
    <polyline fill="#135191" points="275.595 143.034 317.473 3.851 355.473 3.851 313.208 143.034 275.595 143.034"/>
    <path fill="#135191" d="M258.53394 3.85092L224.79914 62.97279C215.88057 78.24602 210.8398 86.129 208.51322 95.98264L208.12507 95.98264C208.51322 83.41908 206.96105 68.39233 206.57304 59.77032L203.08325 3.85092 139.491222 3.85092 139.103077 7.54616C155.38878 7.54616 164.69491 15.67542 167.40931 32.42653L179.81742 143.03372 218.98106 143.03372 298.0834 3.85092 258.53223 3.85092M547.41278 61.00212C547.02463 50.65572 546.63678 36.6143 547.41278 28.23875L546.63678 28.23875C544.31035 35.13621 534.61641 55.82904 530.35103 66.17521L516.00412 96.72149 549.35114 96.72149 547.41317 61.00212 547.41278 61.00212zM551.67816 143.03372L550.51414 122.34111 503.59557 122.34111 493.90163 143.03372 453.18727 143.03372 527.24883 4.09723 577.26937 4.09723 590.0653 143.03372 551.67754 143.03372 551.67816 143.03372zM395.02439 146.97526C368.26913 146.97526 350.82004 138.59964 338.02412 130.96293L355.86079 103.61916C367.49354 110.02407 376.0243 117.16781 396.57542 117.16781 403.16717 117.16781 409.37132 115.44427 413.24892 109.28498 418.28968 100.17043 412.0849 95.48988 397.3508 87.11433L389.98345 82.43376C368.26913 67.40703 358.57519 53.36565 369.04456 28.48504 375.63648 12.71924 392.69784.64849 421.39187.64849 441.16734.64849 459.77965 9.27051 470.63699 17.64605L449.6981 41.78741C439.22856 33.41186 430.69802 28.97782 420.61628 28.97782 412.47331 28.97782 406.65695 31.93377 404.71816 36.12175 400.45299 44.00456 405.88216 49.17762 417.12649 56.3216L426.04484 61.98743C452.41229 78.49227 458.61646 96.22893 452.02448 112.48748 440.77954 140.81658 418.28968 146.97526 395.02439 146.97526"/>
    <path fill="#FAB10B" d="M177.17539,271.21309 C274.30278,229.42068 410.90051,191.80774 591.61175,229.42068 L593.54574,183.69533 C402.7734,162.79917 265.78888,223.52067 177.17456,266.54218 L177.17456,271.21309"/>
  </g>
</svg>
