<?xml version="1.0" encoding="UTF-8" standalone="no"?>
<svg width="349px" height="372px" viewBox="0 0 349 372" version="1.1" xmlns="http://www.w3.org/2000/svg" xmlns:xlink="http://www.w3.org/1999/xlink" xmlns:sketch="http://www.bohemiancoding.com/sketch/ns">
    <!-- Generator: Sketch 3.2.2 (9983) - http://www.bohemiancoding.com/sketch -->
    <title>Slice 1</title>
    <desc>Created with Sketch.</desc>
    <defs></defs>
    <g id="Page-1" stroke="none" stroke-width="1" fill="none" fill-rule="evenodd" sketch:type="MSPage">
        <g id="notification" sketch:type="MSLayerGroup" fill="#F4B300">
            <path d="M348.059,309.293 C348.059,352.074 238.663,371.631 173.882,371.631 C109.101,371.631 0.317,352.074 0.317,309.293 C0.317,302.57 2.762,296.459 7.651,290.959 C66.932,169.342 51.654,112.505 84.045,67.28 C98.712,47.112 115.824,34.278 143.325,28.167 C144.548,12.277 157.382,0.055 173.883,0.055 C189.773,0.055 203.218,12.278 204.441,28.167 C231.942,34.278 249.054,47.112 263.722,67.28 C296.113,112.505 280.833,169.342 340.115,290.959 C345.003,296.459 348.059,302.571 348.059,309.293 L348.059,309.293 Z M312.001,297.071 C286.944,267.126 222.163,261.014 173.882,261.014 C126.213,261.014 60.82,267.125 35.764,297.071 C60.821,327.018 126.213,334.35 173.882,333.741 C222.163,333.741 286.944,327.627 312.001,297.071 L312.001,297.071 Z M146.381,282.403 C146.381,278.737 165.326,278.126 173.882,278.126 C195.272,278.126 201.384,279.96 201.384,282.403 C201.384,299.516 189.16,312.962 173.882,312.962 C158.604,312.962 146.381,299.516 146.381,282.403 L146.381,282.403 Z" id="Shape" sketch:type="MSShapeGroup"></path>
        </g>
    </g>
</svg>