<?xml version="1.0" ?><svg enable-background="new 45.6 168.9 504 504" id="Layer_1" version="1.1" viewBox="45.6 168.9 504 504" xml:space="preserve" xmlns="http://www.w3.org/2000/svg" xmlns:xlink="http://www.w3.org/1999/xlink"><g><rect fill="#616161" height="194.7" transform="matrix(-0.7071 0.7071 -0.7071 -0.7071 1154.0172 652.1981)" width="45.8" x="419" y="467.8"/><circle cx="251.8" cy="375.2" fill="#616161" r="183.2"/></g><rect fill="#37474F" height="140.8" transform="matrix(-0.7071 0.7071 -0.7071 -0.7071 1199.2201 672.1461)" width="45.8" x="437.5" y="514"/><circle cx="251.8" cy="375.2" fill="#64B5F6" r="148.9"/><path d="M330.9,308.7c-19.5-22.9-48.1-36.6-79-36.6s-59.6,13.7-79,36.6c-4.6,4.6-3.4,12.6,1.1,16  c4.6,4.6,12.6,3.4,16-1.1c16-18.3,37.8-28.6,61.8-28.6s45.8,10.3,61.8,28.6c2.3,2.3,5.7,4.6,9.2,4.6c2.3,0,5.7-1.1,6.9-2.3  C334.3,321.3,334.3,313.3,330.9,308.7z" fill="#BBDEFB"/></svg>