<?xml version="1.0" encoding="UTF-8" standalone="no"?>
<svg width="112px" height="117px" viewBox="0 0 112 117" version="1.1" xmlns="http://www.w3.org/2000/svg" xmlns:xlink="http://www.w3.org/1999/xlink" xmlns:sketch="http://www.bohemiancoding.com/sketch/ns">
    <!-- Generator: Sketch 3.2.2 (9983) - http://www.bohemiancoding.com/sketch -->
    <title>Untitled 2</title>
    <desc>Created with Sketch.</desc>
    <defs></defs>
    <g id="Page-1" stroke="none" stroke-width="1" fill="none" fill-rule="evenodd" sketch:type="MSPage">
        <g id="shopping-cart" sketch:type="MSLayerGroup">
            <g id="Group" sketch:type="MSShapeGroup">
                <path d="M107.44,28 L86,28 L86,40 C86,45.514 81.514,50 76,50 C70.486,50 66,45.514 66,40 L66,28 L46,28 L46,40 C46,45.514 41.514,50 36,50 C30.486,50 26,45.514 26,40 L26,28 L4.561,28 C3.404,28 2.301,28.547 1.531,29.504 C0.76,30.461 0.395,31.737 0.527,33.011 L7.722,102.78 C7.856,110.646 13.673,117 20.805,117 L91.196,117 C98.327,117 104.144,110.646 104.279,102.779 L111.474,33.01 C111.605,31.737 111.24,30.461 110.469,29.504 C109.699,28.547 108.596,28 107.44,28 Z" id="Shape" fill="#439FDE"></path>
                <path d="M36,44 C38.206,44 40,42.206 40,40 L40,18 C40,11.823 46.229,8 52,8 L62,8 C68.074,8 72,11.925 72,18 L72,40 C72,42.206 73.795,44 76,44 C78.205,44 80,42.206 80,40 L80,18 C80,7.57 72.43,0 62,0 L52,0 C40.972,0 32,8.075 32,18 L32,40 C32,42.206 33.794,44 36,44 L36,44 Z" id="Shape" fill="#CCCCCB"></path>
            </g>
        </g>
    </g>
</svg>