<svg xmlns="http://www.w3.org/2000/svg" viewBox="0 0 294 370">
  <g fill="#ffffff">
    <path d="M19.092 164.452L274.905 164.452C279.854 164.452 284.138 162.645 287.753 159.028 291.366 155.412 293.18 151.13 293.18 146.181 293.18 141.232 291.367 136.952 287.753 133.331L159.846 5.424C156.232 1.812 151.951 0 146.999 0 142.047 0 137.766 1.812 134.149 5.424L6.242 133.331C2.625 136.948.818 141.232.818 146.181.818 151.129 2.625 155.412 6.242 159.028 9.863 162.645 14.144 164.452 19.092 164.452zM275.087 205L19.274 205C14.322 205 10.041 206.808 6.424 210.421 2.807 214.038 1 218.319 1 223.268 1 228.217 2.807 232.501 6.424 236.116L134.331 364.021C137.952 367.638 142.233 369.449 147.181 369.449 152.129 369.449 156.414 367.638 160.028 364.021L287.935 236.115C291.548 232.501 293.362 228.217 293.362 223.267 293.362 218.319 291.549 214.038 287.935 210.42 284.321 206.804 280.036 205 275.087 205z"/>
  </g>
</svg>
