<?xml version="1.0" ?><svg enable-background="new 45.6 168.9 504 504" id="Layer_1" version="1.1" viewBox="45.6 168.9 504 504" xml:space="preserve" xmlns="http://www.w3.org/2000/svg" xmlns:xlink="http://www.w3.org/1999/xlink"><g><path d="M471.3,210.1H124c-13.6,0-24.8,11.2-24.8,24.8v74.4c0,13.6,11.2,24.8,24.8,24.8h347.2   c13.6,0,24.8-11.2,24.8-24.8v-74.4C496.1,221.3,484.9,210.1,471.3,210.1z" fill="#D1C4E9"/><path d="M471.3,358.9H124c-13.6,0-24.8,11.2-24.8,24.8v74.4c0,13.6,11.2,24.8,24.8,24.8h347.2   c13.6,0,24.8-11.2,24.8-24.8v-74.4C496.1,370.1,484.9,358.9,471.3,358.9z" fill="#D1C4E9"/><path d="M471.3,507.8H124c-13.6,0-24.8,11.2-24.8,24.8V607c0,13.6,11.2,24.8,24.8,24.8h347.2   c13.6,0,24.8-11.2,24.8-24.8v-74.4C496.1,518.9,484.9,507.8,471.3,507.8z" fill="#D1C4E9"/></g></svg>