<?xml version="1.0" ?><svg enable-background="new 45.6 168.9 504 504" id="Layer_1" version="1.1" viewBox="45.6 168.9 504 504" xml:space="preserve" xmlns="http://www.w3.org/2000/svg" xmlns:xlink="http://www.w3.org/1999/xlink"><path d="M520.9,483H258c-6.2,0-12.4-2.5-17.4-7.4l-45.9-45.9c-5-5-5-12.4,0-17.4l45.9-45.9c5-5,11.2-7.4,17.4-7.4  h262.9c7.4,0,12.4,5,12.4,12.4v99.2C533.3,478,528.3,483,520.9,483z" fill="#3F51B5"/><rect fill="#CFD8DC" height="446.5" width="24.8" x="111.6" y="197.7"/><g><circle cx="124" cy="247.3" fill="#90A4AE" r="37.2"/><circle cx="124" cy="420.9" fill="#90A4AE" r="37.2"/><circle cx="124" cy="594.6" fill="#90A4AE" r="37.2"/></g><path d="M421.7,656.6H258c-6.2,0-12.4-2.5-17.4-7.4l-45.9-45.9c-5-5-5-12.4,0-17.4l45.9-45.9c5-5,11.2-7.4,17.4-7.4  h163.7c7.4,0,12.4,5,12.4,12.4v99.2C434.1,651.6,429.1,656.6,421.7,656.6z" fill="#448AFF"/><path d="M434.1,309.3H258c-6.2,0-12.4-2.5-17.4-7.4L194.7,256c-5-5-5-12.4,0-17.4l45.9-45.9c5-5,11.2-7.4,17.4-7.4  h176.1c7.4,0,12.4,5,12.4,12.4v99.2C446.5,304.4,441.5,309.3,434.1,309.3z" fill="#00BCD4"/></svg>