<?xml version="1.0" encoding="UTF-8" standalone="no"?>
<svg width="88px" height="92px" viewBox="0 0 88 92" version="1.1" xmlns="http://www.w3.org/2000/svg" xmlns:xlink="http://www.w3.org/1999/xlink" xmlns:sketch="http://www.bohemiancoding.com/sketch/ns">
    <!-- Generator: Sketch 3.2.2 (9983) - http://www.bohemiancoding.com/sketch -->
    <title>Untitled 3</title>
    <desc>Created with Sketch.</desc>
    <defs></defs>
    <g id="Page-1" stroke="none" stroke-width="1" fill="none" fill-rule="evenodd" sketch:type="MSPage">
        <path d="M70,56 C66.344,56 62.848,57.116 59.808,59.252 L35.964,46.104 C35.984,45.852 36,45.592 36,45.34 C36,45.2 35.996,45.064 35.988,44.924 L59.52,32.556 C62.616,34.812 66.212,36 70,36 C79.924,36 88,27.92 88,18 C88,8.08 79.924,0 70,0 C60.08,0 52,8.08 52,18 C52,18.14 52.004,18.272 52.012,18.416 L28.48,30.78 C25.384,28.528 21.788,27.34 18,27.34 C8.076,27.34 0,35.416 0,45.34 C0,55.256 8.076,63.34 18,63.34 C21.656,63.34 25.152,62.228 28.192,60.088 L52.036,73.236 C52.016,73.488 52,73.744 52,74 C52,83.92 60.08,92 70,92 C79.92,92 88,83.92 88,74 C88,64.08 79.92,56 70,56 L70,56 Z" id="Shape" fill="#C199E4" sketch:type="MSShapeGroup"></path>
    </g>
</svg>